KRSPY-parametric-NarrowBlackMaxGrade.ufo
<glyph name="zero" format="2">
  <advance width="1513.8738738738737"/>
  <unicode hex="0030"/>
  <outline>
    <contour>
      <point x="84.47747747747748" y="0.0" type="line" identifier="4KX3b3mGg4"/>
      <point x="1429.3963963963963" y="0.0" type="line" identifier="V2j8wYP0nr"/>
      <point x="1429.3963963963963" y="1600.0" type="line" identifier="NaxGoenf3y"/>
      <point x="84.47747747747748" y="1600.0" type="line" identifier="rx6fJSLiri"/>
    </contour>
    <contour>
      <point x="701.3963963963963" y="453.7117117117117" type="line"/>
      <point x="701.3963963963963" y="1146.2882882882882" type="line"/>
      <point x="812.4774774774775" y="1146.2882882882882" type="line"/>
      <point x="812.4774774774775" y="453.7117117117117" type="line"/>
    </contour>
  </outline>
</glyph>
<glyph name="two" format="2">
  <advance width="1494"/>
  <unicode hex="0032"/>
  <outline>
    <contour>
      <point x="76" y="0" type="line"/>
      <point x="1418" y="0" type="line" identifier="pzdvPTirLJ"/>
      <point x="1418" y="515" type="line" identifier="91SxUS0iwG"/>
      <point x="801" y="515" type="line" identifier="fP7EN0pUcl"/>
      <point x="801" y="454" type="line" identifier="eb458Bdvng"/>
      <point x="693" y="454" type="line"/>
      <point x="693" y="517" type="line" identifier="9fjc25rkUx"/>
      <point x="1413" y="962" type="line" identifier="yyb1NCCI5w"/>
      <point x="1413" y="1600" type="line" identifier="5FogYRSgkk"/>
      <point x="80" y="1600" type="line" identifier="svlFvrau4c"/>
      <point x="80" y="986" type="line" identifier="LQ9fBsTy9K"/>
      <point x="697" y="986" type="line" identifier="jS6EyIAKtm"/>
      <point x="697" y="1146" type="line"/>
      <point x="796" y="1146" type="line" identifier="N6CMAjhNlU"/>
      <point x="796" y="963" type="line" identifier="yK1d5IcluK"/>
      <point x="76" y="519" type="line" identifier="teVKnpBcVb"/>
    </contour>
  </outline>
</glyph>
<glyph name="three" format="2">
  <advance width="1504.4504504504503"/>
  <unicode hex="0033"/>
  <outline>
    <contour>
      <point x="81.76576576576576" y="0.0" type="line" identifier="O9abUc1nmN"/>
      <point x="1423.6846846846845" y="0.0" type="line" identifier="kMJYMTfXCq"/>
      <point x="1423.6846846846845" y="910.1621621621622" type="line" identifier="su2XmdS8e8"/>
      <point x="1301.4504504504503" y="910.1621621621622" type="line" identifier="JQaOzDQqlF"/>
      <point x="1301.4504504504503" y="912.3513513513514" type="line"/>
      <point x="1378.6756756756756" y="975.5945945945946" type="line" identifier="S91TzLL02W"/>
      <point x="1378.6756756756756" y="1600.0" type="line" identifier="xg8x2Ki40p"/>
      <point x="84.47747747747748" y="1600.0" type="line" identifier="pE1XSRiy68"/>
      <point x="84.47747747747748" y="969.4684684684685" type="line" identifier="5lNstGRcSF"/>
      <point x="701.3963963963963" y="969.4684684684685" type="line" identifier="AcE5xKDZfE"/>
      <point x="701.3963963963963" y="1136.4684684684685" type="line" identifier="7ogBYufWpl"/>
      <point x="761.7567567567567" y="1136.4684684684685" type="line" identifier="RHLvSX2Jv6"/>
      <point x="761.7567567567567" y="975.5945945945946" type="line" identifier="YUjTrmoWd9"/>
      <point x="690.2252252252251" y="913.063063063063" type="line"/>
      <point x="690.2252252252251" y="910.1621621621622" type="line" identifier="iic1IBkDqp"/>
      <point x="166.07207207207207" y="910.1621621621622" type="line" identifier="lRLJEhXMlO"/>
      <point x="166.07207207207207" y="633.2072072072071" type="line" identifier="8aKgEELrVU"/>
      <point x="806.7657657657658" y="633.2072072072071" type="line" identifier="Dm8zjmbhNr"/>
      <point x="806.7657657657658" y="453.7117117117117" type="line" identifier="xv9CFHiFgB"/>
      <point x="698.6846846846846" y="453.7117117117117" type="line" identifier="YajKQV3MHP"/>
      <point x="698.6846846846846" y="575.5315315315315" type="line" identifier="36SchVkwze"/>
      <point x="81.76576576576576" y="575.5315315315315" type="line" identifier="tVui9PiOjA"/>
    </contour>
  </outline>
</glyph>
<glyph name="four" format="2">
  <advance width="1488"/>
  <unicode hex="0034"/>
  <outline>
    <contour>
      <point x="773" y="0" type="line"/>
      <point x="1390" y="0" type="line"/>
      <point x="1390" y="557" type="line"/>
      <point x="1484" y="557" type="line"/>
      <point x="1484" y="1010" type="line"/>
      <point x="1390" y="1010" type="line"/>
      <point x="1390" y="1600" type="line"/>
      <point x="773" y="1600" type="line"/>
      <point x="773" y="1010" type="line"/>
      <point x="683" y="1010" type="line"/>
      <point x="683" y="1052" type="line"/>
      <point x="772" y="1680" type="line"/>
      <point x="170" y="1680" type="line"/>
      <point x="66" y="1051" type="line"/>
      <point x="66" y="557" type="line"/>
      <point x="773" y="557" type="line"/>
    </contour>
  </outline>
</glyph>
<glyph name="six" format="2">
  <advance width="1497.7387387387387"/>
  <unicode hex="0036"/>
  <outline>
    <contour>
      <point x="76.07207207207206" y="0.0" type="line" identifier="uiw6aBUf4P"/>
      <point x="1418.972972972973" y="0.0" type="line" identifier="jtYkxiUX6G"/>
      <point x="1418.972972972973" y="928.6576576576576" type="line" identifier="2G5L37c87I"/>
      <point x="692.9909909909909" y="928.6576576576576" type="line"/>
      <point x="692.9909909909909" y="1046.2072072072071" type="line"/>
      <point x="706.936936936937" y="1146.2882882882882" type="line"/>
      <point x="801.3423423423422" y="1146.2882882882882" type="line"/>
      <point x="801.3423423423422" y="1006.4864864864865" type="line"/>
      <point x="1417.279279279279" y="1006.4864864864865" type="line" identifier="Wuidbv6mUe"/>
      <point x="1417.279279279279" y="1600.0" type="line" identifier="oGvEEuxnYv"/>
      <point x="121.17117117117117" y="1600.0" type="line" identifier="xR3pEHbMJx"/>
      <point x="76.07207207207206" y="1047.2072072072071" type="line" identifier="KnMArb0tv8"/>
    </contour>
    <contour>
      <point x="802.054054054054" y="553.5045045045046" type="line"/>
      <point x="802.054054054054" y="453.7117117117117" type="line"/>
      <point x="692.9909909909909" y="453.7117117117117" type="line"/>
      <point x="692.9909909909909" y="553.5045045045046" type="line"/>
    </contour>
  </outline>
</glyph>
<glyph name="eight" format="2">
  <advance width="1542.144144144144"/>
  <unicode hex="0038"/>
  <outline>
    <contour>
      <point x="770.8468468468468" y="622.2432432432432" type="line"/>
      <point x="832.3243243243243" y="556.6036036036036" type="line"/>
      <point x="832.3243243243243" y="453.7117117117117" type="line"/>
      <point x="709.8198198198197" y="453.7117117117117" type="line"/>
      <point x="709.8198198198197" y="556.6036036036036" type="line"/>
      <point x="771.2972972972973" y="622.2432432432432" type="line"/>
    </contour>
    <contour>
      <point x="1318.2882882882882" y="799.0" type="line"/>
      <point x="1318.2882882882882" y="801.0" type="line"/>
      <point x="1445.5315315315315" y="985.3423423423424" type="line"/>
      <point x="1445.5315315315315" y="1600.0" type="line"/>
      <point x="96.61261261261261" y="1600.0" type="line"/>
      <point x="96.61261261261261" y="985.3423423423424" type="line"/>
      <point x="225.81981981981983" y="801.0" type="line"/>
      <point x="225.81981981981983" y="799.0" type="line"/>
      <point x="92.9009009009009" y="611.6576576576576" type="line"/>
      <point x="92.9009009009009" y="0.0" type="line"/>
      <point x="1449.2432432432431" y="0.0" type="line"/>
      <point x="1449.2432432432431" y="611.6576576576576" type="line"/>
    </contour>
    <contour>
      <point x="771.2972972972973" y="977.7567567567568" type="line"/>
      <point x="713.5315315315315" y="1040.3963963963963" type="line"/>
      <point x="713.5315315315315" y="1146.2882882882882" type="line"/>
      <point x="828.6126126126126" y="1146.2882882882882" type="line"/>
      <point x="828.6126126126126" y="1040.3963963963963" type="line"/>
      <point x="770.8468468468468" y="977.7567567567568" type="line"/>
    </contour>
  </outline>
</glyph>
<glyph name="nine" format="2">
  <advance width="1497.7387387387387"/>
  <unicode hex="0039"/>
  <outline>
    <contour>
      <point x="1419.972972972973" y="1600.0" type="line" identifier="uiw6aBUf4P"/>
      <point x="77.07207207207206" y="1600.0" type="line" identifier="jtYkxiUX6G"/>
      <point x="77.07207207207206" y="651.7027027027027" type="line" identifier="2G5L37c87I"/>
      <point x="803.054054054054" y="651.7027027027027" type="line"/>
      <point x="803.054054054054" y="453.7117117117117" type="line"/>
      <point x="695.6846846846846" y="453.7117117117117" type="line"/>
      <point x="695.6846846846846" y="583.6936936936936" type="line"/>
      <point x="78.76576576576576" y="583.6936936936936" type="line" identifier="Wuidbv6mUe"/>
      <point x="78.76576576576576" y="0.0" type="line" identifier="oGvEEuxnYv"/>
      <point x="1419.972972972973" y="0.0" type="line" identifier="xR3pEHbMJx"/>
    </contour>
    <contour>
      <point x="693.9909909909909" y="1017.036036036036" type="line"/>
      <point x="693.9909909909909" y="1146.2882882882882" type="line"/>
      <point x="803.054054054054" y="1146.2882882882882" type="line"/>
      <point x="803.054054054054" y="1017.036036036036" type="line"/>
    </contour>
  </outline>
</glyph>
<glyph name="A" format="2">
  <advance width="1534.4144144144143"/>
  <unicode hex="0041"/>
  <outline>
    <contour>
      <point x="92.9009009009009" y="0.0" type="line" smooth="yes" identifier="jFq8ta4UUc"/>
      <point x="709.8198198198197" y="0.0" type="line" smooth="yes" identifier="dQz4RxYhG4"/>
      <point x="709.8198198198197" y="416.02702702702703" type="line" smooth="yes" identifier="viYRWe5UN7"/>
      <point x="820.2702702702702" y="416.02702702702703" type="line" smooth="yes" identifier="QVexAlbAcl"/>
      <point x="820.2702702702702" y="0.0" type="line" smooth="yes" identifier="ZgsCdxNJRW"/>
      <point x="1437.1891891891892" y="0.0" type="line" smooth="yes" identifier="kpn4Kw9J0C"/>
      <point x="1437.1891891891892" y="1600.0" type="line" smooth="yes" identifier="OBZ5Ayed7M"/>
      <point x="184.5855855855856" y="1600.0" type="line" smooth="yes" identifier="iDT0uyhKrn"/>
      <point x="92.9009009009009" y="902.2882882882883" type="line" smooth="yes" identifier="dqVr87m3uJ"/>
    </contour>
    <contour>
      <point x="709.8198198198197" y="869.7387387387387" type="line" smooth="yes" identifier="IIRC9Wy7kQ"/>
      <point x="709.8198198198197" y="902.2882882882883" type="line" smooth="yes" identifier="VufvPdJ075"/>
      <point x="728.2612612612612" y="1146.2882882882882" type="line" smooth="yes" identifier="FsYtJ2vFnp"/>
      <point x="820.2702702702702" y="1146.2882882882882" type="line" smooth="yes" identifier="tUsW8L7b0y"/>
      <point x="820.2702702702702" y="869.7387387387387" type="line" smooth="yes" identifier="eTe9B4y76W"/>
    </contour>
  </outline>
</glyph>
<glyph name="B" format="2">
  <advance width="1480.0090090090089"/>
  <unicode hex="0042"/>
  <outline>
    <contour>
      <point x="68.97297297297297" y="0.0" type="line" identifier="hvY9r8RmLr"/>
      <point x="1411.8918918918919" y="0.0" type="line" identifier="9QFpw7nfq7"/>
      <point x="1411.8918918918919" y="618.9459459459459" type="line" identifier="543PerILpr"/>
      <point x="1301.027027027027" y="799.0" type="line" identifier="zhomauHW30"/>
      <point x="1301.027027027027" y="801.0" type="line" identifier="870ZhtaozS"/>
      <point x="1408.1801801801803" y="984.6306306306307" type="line" identifier="eGKH52Jgnk"/>
      <point x="1408.1801801801803" y="1600.0" type="line" identifier="FaP204GrdB"/>
      <point x="68.97297297297297" y="1600.0" type="line" identifier="JEev70GAj6"/>
    </contour>
    <contour>
      <point x="685.8918918918919" y="997.3963963963964" type="line" identifier="By7dfMihfe"/>
      <point x="685.8918918918919" y="1144.3243243243244" type="line" identifier="1p5hKrurVy"/>
      <point x="791.2612612612612" y="1144.3243243243244" type="line" identifier="Qby8aMtF2X"/>
      <point x="791.2612612612612" y="1110.855855855856" type="line" identifier="9lW01gQyU2"/>
      <point x="753.5855855855856" y="997.3963963963964" type="line" identifier="xpxyvIzPoc"/>
    </contour>
    <contour>
      <point x="685.8918918918919" y="453.7117117117117" type="line" identifier="jaMSiLrCua"/>
      <point x="685.8918918918919" y="602.6036036036036" type="line" identifier="XSrxNd2axx"/>
      <point x="753.5855855855856" y="602.6036036036036" type="line" identifier="VyYlzRh5nq"/>
      <point x="794.9729729729729" y="492.7207207207207" type="line" identifier="lsRGatjQja"/>
      <point x="794.9729729729729" y="453.7117117117117" type="line" identifier="xhlDJ3CjD5"/>
    </contour>
  </outline>
</glyph>
<glyph name="C" format="2">
  <advance width="1471.279279279279"/>
  <unicode hex="0043"/>
  <outline>
    <contour>
      <point x="65.34234234234233" y="0.0" type="line" identifier="7lPhzTnk2Z"/>
      <point x="1407.5495495495495" y="0.0" type="line" identifier="qJVLZGnkwh"/>
      <point x="1407.5495495495495" y="631.2342342342342" type="line" identifier="nDnDHzAMXL"/>
      <point x="790.6306306306305" y="631.2342342342342" type="line" identifier="QX1V08aTu0"/>
      <point x="790.6306306306305" y="453.7117117117117" type="line" identifier="Y750RHTvDj"/>
      <point x="682.2612612612612" y="453.7117117117117" type="line" identifier="L2LsGnXiZ2"/>
      <point x="682.2612612612612" y="937.3423423423425" type="line" identifier="sUWsr03vF4"/>
      <point x="723.036036036036" y="1146.2882882882882" type="line" identifier="dbOUe6OhxL"/>
      <point x="789.6306306306305" y="1146.2882882882882" type="line" identifier="5BjRbcud80"/>
      <point x="789.6306306306305" y="833.2252252252254" type="line" identifier="fNVDqwQo2o"/>
      <point x="1406.5495495495495" y="833.2252252252254" type="line" identifier="wLqQQx7QVN"/>
      <point x="1406.5495495495495" y="1600.0" type="line" identifier="9eJelv8BOw"/>
      <point x="188.34234234234233" y="1600.0" type="line" identifier="lfZev3ICaC"/>
      <point x="65.34234234234233" y="972.9459459459459" type="line" identifier="V1EWIdPahq"/>
    </contour>
  </outline>
</glyph>
<glyph name="E" format="2">
  <advance width="1514.117117117117"/>
  <unicode hex="0045"/>
  <outline>
    <contour>
      <point x="97.22522522522522" y="0.0" type="line" identifier="fZynkQ4XHB"/>
      <point x="1345.6036036036035" y="0.0" type="line" identifier="FAQNpgUPxV"/>
      <point x="1345.6036036036035" y="527.2522522522522" type="line" identifier="gHI0YjrPxR"/>
      <point x="814.09009009009" y="527.2522522522522" type="line" identifier="gxCIuXb4el"/>
      <point x="814.09009009009" y="435.05405405405406" type="line" identifier="5cgTYOhATF"/>
      <point x="714.1441441441441" y="435.05405405405406" type="line" identifier="bWs42DaCgU"/>
      <point x="714.1441441441441" y="592.7837837837837" type="line" identifier="VtD2aADJmn"/>
      <point x="1293.252252252252" y="592.7837837837837" type="line" identifier="PpbsFdHAnS"/>
      <point x="1293.252252252252" y="1008.1981981981982" type="line" identifier="8WuC5p8Ax5"/>
      <point x="714.1441441441441" y="1008.1981981981982" type="line" identifier="m39IWn9ntA"/>
      <point x="714.1441441441441" y="1175.7477477477478" type="line" identifier="gQ21I4SHQg"/>
      <point x="813.09009009009" y="1175.7477477477478" type="line" identifier="eqNb2VTwYs"/>
      <point x="813.09009009009" y="1075.7297297297298" type="line" identifier="mLmcFoJA4m"/>
      <point x="1344.6036036036035" y="1075.7297297297298" type="line" identifier="e79n7CoPy1"/>
      <point x="1344.6036036036035" y="1600.0" type="line" identifier="qYRmo14Il5"/>
      <point x="97.22522522522522" y="1600.0" type="line" identifier="HmJIcnLWfC"/>
    </contour>
  </outline>
</glyph>
<glyph name="J" format="2">
  <advance width="1474.3603603603603"/>
  <unicode hex="004A"/>
  <outline>
    <contour>
      <point x="110.58558558558559" y="0.0" type="line" identifier="jiO9eX9U07"/>
      <point x="1405.3873873873872" y="0.0" type="line" identifier="wgpFs1yguc"/>
      <point x="1405.3873873873872" y="1600.0" type="line" identifier="d5Di3vNzni"/>
      <point x="66.18018018018019" y="1600.0" type="line" identifier="TbrXnCyMEi"/>
      <point x="66.18018018018019" y="1146.2882882882882" type="line" identifier="AdYfGKx8QJ"/>
      <point x="788.4684684684685" y="1146.2882882882882" type="line" identifier="46RrD1WET2"/>
      <point x="788.4684684684685" y="453.7117117117117" type="line" identifier="zFXsE8BUYG"/>
      <point x="704.9189189189188" y="453.7117117117117" type="line" identifier="NQmE31PUns"/>
      <point x="679.4054054054053" y="797.7117117117117" type="line" identifier="qiXxY6YhCq"/>
      <point x="63.46846846846846" y="797.7117117117117" type="line" identifier="7exNZv1XSc"/>
    </contour>
  </outline>
</glyph>
<glyph name="M" format="2">
  <advance width="2468.8108108108104"/>
  <unicode hex="004D"/>
  <outline>
    <contour>
      <point x="806.3063063063062" y="80.0" type="line" identifier="0Dn4Xpf57M"/>
      <point x="751.8288288288288" y="1146.2882882882882" type="line"/>
      <point x="714.1441441441441" y="1146.2882882882882" type="line"/>
      <point x="714.1441441441441" y="0.0" type="line"/>
      <point x="97.22522522522522" y="0.0" type="line"/>
      <point x="97.22522522522522" y="1600.0" type="line"/>
      <point x="1171.2792792792793" y="1600.0" type="line"/>
      <point x="1222.5675675675675" y="494.4324324324324" type="line"/>
      <point x="1246.2432432432431" y="494.4324324324324" type="line" identifier="9aKZPM0HPh"/>
      <point x="1297.5315315315315" y="1600.0" type="line"/>
      <point x="2371.5855855855852" y="1600.0" type="line"/>
      <point x="2371.5855855855852" y="0.0" type="line"/>
      <point x="1754.6666666666665" y="0.0" type="line"/>
      <point x="1754.6666666666665" y="1146.2882882882882" type="line"/>
      <point x="1716.9819819819818" y="1146.2882882882882" type="line"/>
      <point x="1662.5045045045044" y="80.0" type="line" identifier="spdoeeCFft"/>
    </contour>
  </outline>
</glyph>
<glyph name="O" format="2">
  <advance width="1529.3333333333333"/>
  <unicode hex="004F"/>
  <outline>
    <contour>
      <point x="1437.1261261261259" y="594.2072072072071" type="line" identifier="ob8US3C311"/>
      <point x="1437.1261261261259" y="1600.0" type="line" identifier="c9brEFyXXA"/>
      <point x="224.4234234234234" y="1600.0" type="line" identifier="a4Ql951bxG"/>
      <point x="92.20720720720719" y="1002.7927927927929" type="line" identifier="kbL68Qh2zr"/>
      <point x="92.20720720720719" y="0.0" type="line" identifier="U6WibAQAUl"/>
      <point x="1305.198198198198" y="0.0" type="line" identifier="dfgNHTgBfR"/>
    </contour>
    <contour>
      <point x="820.2072072072071" y="666.6306306306305" type="line" identifier="SnrsQD5TLy"/>
      <point x="790.8738738738739" y="453.7117117117117" type="line" identifier="jjd5iRDXWT"/>
      <point x="709.126126126126" y="453.7117117117117" type="line" identifier="YbQKHpAtYn"/>
      <point x="709.126126126126" y="934.0090090090091" type="line" identifier="vdfGLkskOQ"/>
      <point x="738.7477477477477" y="1146.2882882882882" type="line" identifier="qXlVxK5ShE"/>
      <point x="820.2072072072071" y="1146.2882882882882" type="line" identifier="g70r2r6DwY"/>
    </contour>
  </outline>
</glyph>
<glyph name="P" format="2">
  <advance width="1519.9099099099096"/>
  <unicode hex="0050"/>
  <outline>
    <contour>
      <point x="97.22522522522522" y="0.0" type="line" identifier="EG08jqU5fb"/>
      <point x="714.1441441441441" y="0.0" type="line" identifier="osRzIFK2Cu"/>
      <point x="714.1441441441441" y="463.7927927927928" type="line" identifier="hIFVovVRwe"/>
      <point x="1434.7207207207205" y="602.6036036036036" type="line" identifier="Tt6D8zYZmU"/>
      <point x="1434.7207207207205" y="1600.0" type="line" identifier="6xW04auDFu"/>
      <point x="97.22522522522522" y="1600.0" type="line" identifier="eETO5GBD5v"/>
    </contour>
    <contour>
      <point x="714.1441441441441" y="858.5855855855856" type="line" identifier="PIBVN1PGv1"/>
      <point x="714.1441441441441" y="1146.2882882882882" type="line" identifier="IZIZQr2gYJ"/>
      <point x="817.8018018018018" y="1146.2882882882882" type="line" identifier="2c4LCF1E1R"/>
      <point x="817.8018018018018" y="878.3423423423424" type="line" identifier="1WCnzth1GX"/>
    </contour>
  </outline>
</glyph>
<glyph name="Q" format="2">
  <advance width="1525.171171171171"/>
  <unicode hex="0051"/>
  <outline>
    <contour>
      <point x="1437.1261261261259" y="1600.0" type="line" identifier="c9brEFyXXA"/>
      <point x="203.07207207207205" y="1600.0" type="line" identifier="a4Ql951bxG"/>
      <point x="92.20720720720719" y="1020.081081081081" type="line" identifier="kbL68Qh2zr"/>
      <point x="92.20720720720719" y="0.0" type="line" identifier="U6WibAQAUl"/>
      <point x="1437.1261261261259" y="0.0" type="line" identifier="dfgNHTgBfR"/>
    </contour>
    <contour>
      <point x="820.2072072072071" y="453.7117117117117" type="line" identifier="jjd5iRDXWT"/>
      <point x="709.126126126126" y="453.7117117117117" type="line" identifier="YbQKHpAtYn"/>
      <point x="709.126126126126" y="1021.081081081081" type="line" identifier="vdfGLkskOQ"/>
      <point x="722.3063063063063" y="1146.2882882882882" type="line" identifier="qXlVxK5ShE"/>
      <point x="820.2072072072071" y="1146.2882882882882" type="line" identifier="g70r2r6DwY"/>
    </contour>
    <contour>
      <point x="551.8648648648648" y="-296.7207207207207" type="line"/>
      <point x="985.8738738738738" y="-296.7207207207207" type="line"/>
      <point x="985.8738738738738" y="0.5765765765765767" type="line"/>
      <point x="551.8648648648648" y="0.5765765765765767" type="line"/>
    </contour>
  </outline>
</glyph>
<glyph name="R" format="2">
  <advance width="1534"/>
  <unicode hex="0052"/>
  <outline>
    <contour>
      <point x="715" y="929" type="line"/>
      <point x="715" y="1146" type="line"/>
      <point x="820" y="1146" type="line"/>
      <point x="820" y="971" type="line"/>
      <point x="784" y="929" type="line"/>
    </contour>
    <contour>
      <point x="1441" y="0" type="line"/>
      <point x="1441" y="521" type="line"/>
      <point x="1330" y="701" type="line"/>
      <point x="1330" y="703" type="line"/>
      <point x="1437" y="887" type="line"/>
      <point x="1437" y="1600" type="line"/>
      <point x="98" y="1600" type="line"/>
      <point x="98" y="0" type="line"/>
      <point x="715" y="0" type="line"/>
      <point x="715" y="475" type="line"/>
      <point x="784" y="475" type="line"/>
      <point x="824" y="437" type="line"/>
      <point x="824" y="0" type="line"/>
    </contour>
  </outline>
</glyph>
<glyph name="S" format="2">
  <advance width="1498.126126126126"/>
  <unicode hex="0053"/>
  <outline>
    <contour>
      <point x="84.12612612612612" y="0.0" type="line" identifier="09VlJ0BjUX"/>
      <point x="1417.5045045045044" y="0.0" type="line" identifier="EagWihqFM8"/>
      <point x="1417.5045045045044" y="1007.018018018018" type="line" identifier="KfNuQA7eZe"/>
      <point x="698.927927927928" y="1007.018018018018" type="line" identifier="At364YZFEy"/>
      <point x="698.927927927928" y="1175.7477477477478" type="line" identifier="BcuLfvaQKC"/>
      <point x="800.5855855855856" y="1175.7477477477478" type="line" identifier="3ZUkG35meB"/>
      <point x="800.5855855855856" y="1066.3873873873874" type="line" identifier="DTOJhFIl15"/>
      <point x="1417.5045045045044" y="1066.3873873873874" type="line" identifier="9KDcrfQ5Ui"/>
      <point x="1417.5045045045044" y="1600.0" type="line" identifier="SaF9ojRFrW"/>
      <point x="82.00900900900899" y="1600.0" type="line" identifier="F4sQEYelA8"/>
      <point x="82.00900900900899" y="599.5585585585586" type="line" identifier="3sQ8t8BZ6b"/>
      <point x="800.5855855855856" y="599.5585585585586" type="line" identifier="yiV6OCBLHg"/>
      <point x="800.5855855855856" y="453.7117117117117" type="line" identifier="9kdl9SYsn8"/>
      <point x="700.063063063063" y="453.7117117117117" type="line" identifier="yZDWuX8LLe"/>
      <point x="700.063063063063" y="551.3423423423424" type="line" identifier="jYb9001DTm"/>
      <point x="84.12612612612612" y="551.3423423423424" type="line" identifier="ho4DrS0rdW"/>
    </contour>
  </outline>
</glyph>
<glyph name="U" format="2">
  <advance width="1531.6396396396394"/>
  <unicode hex="0055"/>
  <outline>
    <contour>
      <point x="819.1891891891892" y="1600.0" type="line" smooth="yes"/>
      <point x="819.1891891891892" y="453.7117117117117" type="line"/>
      <point x="737.6036036036036" y="453.7117117117117" type="line" smooth="yes"/>
      <point x="710.8198198198197" y="573.5675675675676" type="line" smooth="yes"/>
      <point x="710.8198198198197" y="1600.0" type="line"/>
      <point x="93.9009009009009" y="1600.0" type="line" smooth="yes"/>
      <point x="93.9009009009009" y="573.5675675675676" type="line" smooth="yes"/>
      <point x="216.9009009009009" y="0.0" type="line" smooth="yes"/>
      <point x="1436.108108108108" y="0.0" type="line" smooth="yes"/>
      <point x="1436.108108108108" y="1600.0" type="line" smooth="yes"/>
    </contour>
  </outline>
</glyph>
<glyph name="V" format="2">
  <advance width="1531.6396396396394"/>
  <unicode hex="0056"/>
  <outline>
    <contour>
      <point x="706.6576576576576" y="1600.0" type="line" smooth="yes"/>
      <point x="706.6576576576576" y="453.7117117117117" type="line"/>
      <point x="786.8018018018017" y="453.7117117117117" type="line" smooth="yes"/>
      <point x="815.027027027027" y="573.5675675675676" type="line" smooth="yes"/>
      <point x="815.027027027027" y="1600.0" type="line"/>
      <point x="1431.9459459459458" y="1600.0" type="line" smooth="yes"/>
      <point x="1431.9459459459458" y="573.5675675675676" type="line" smooth="yes"/>
      <point x="1301.5405405405404" y="0.0" type="line" smooth="yes"/>
      <point x="89.73873873873875" y="0.0" type="line" smooth="yes"/>
      <point x="89.73873873873875" y="1600.0" type="line" smooth="yes"/>
    </contour>
  </outline>
</glyph>
<glyph name="W" format="2">
  <advance width="2322.7747747747744"/>
  <unicode hex="0057"/>
  <outline>
    <contour>
      <point x="819.5765765765765" y="1600.0" type="line" smooth="yes" identifier="12Pyby1xY2"/>
      <point x="93.76576576576576" y="1600.0" type="line" smooth="yes" identifier="5LJg4ajoG6"/>
      <point x="93.76576576576576" y="0.0" type="line" smooth="yes" identifier="ZqTZqAY3uY"/>
      <point x="1141.4504504504503" y="0.0" type="line" smooth="yes" identifier="rCeQLyjlsN"/>
      <point x="1197.6846846846845" y="284.1261261261261" type="line"/>
      <point x="1212.6306306306305" y="284.1261261261261" type="line"/>
      <point x="1255.3333333333333" y="0.0" type="line" smooth="yes" identifier="Pkl7cZ37MU"/>
      <point x="2088.081081081081" y="0.0" type="line" smooth="yes" identifier="R4lklfJsHA"/>
      <point x="2225.3153153153153" y="559.3333333333334" type="line" smooth="yes" identifier="7g7f8Wu7K4"/>
      <point x="2225.3153153153153" y="1600.0" type="line" smooth="yes" identifier="RTOJW56qXy"/>
      <point x="1607.6846846846845" y="1600.0" type="line" identifier="JfSFAkWGZC"/>
      <point x="1607.6846846846845" y="571.8918918918919" type="line" smooth="yes" identifier="WWvGwSpq0g"/>
      <point x="1567.6486486486485" y="453.7117117117117" type="line" smooth="yes" identifier="oee4nqI8Wl"/>
      <point x="1520.6666666666665" y="453.7117117117117" type="line" identifier="Ljn2lpvpG8"/>
      <point x="1499.3153153153153" y="569.4324324324324" type="line"/>
      <point x="1500.2972972972973" y="1305.4054054054054" type="line" smooth="yes"/>
      <point x="928.927927927928" y="1305.4054054054054" type="line"/>
      <point x="927.9459459459459" y="588.8018018018017" type="line"/>
      <point x="927.6576576576576" y="574.5675675675675" type="line"/>
      <point x="902.144144144144" y="453.7117117117117" type="line" identifier="GlWB6PG54Z"/>
      <point x="819.5765765765765" y="453.7117117117117" type="line" identifier="iqeTRv7HXg"/>
    </contour>
  </outline>
</glyph>
<glyph name="X" format="2">
  <advance width="1542.144144144144"/>
  <unicode hex="0058"/>
  <outline>
    <contour>
      <point x="770.8468468468468" y="573.1441441441441" type="line"/>
      <point x="832.3243243243243" y="527.1441441441441" type="line"/>
      <point x="832.3243243243243" y="0.0" type="line"/>
      <point x="1449.2432432432431" y="0.0" type="line"/>
      <point x="1449.2432432432431" y="611.6576576576576" type="line"/>
      <point x="1317.3063063063064" y="799.0" type="line"/>
      <point x="1317.3063063063064" y="801.0" type="line"/>
      <point x="1445.2432432432431" y="985.3423423423424" type="line"/>
      <point x="1445.2432432432431" y="1600.0" type="line"/>
      <point x="829.3063063063063" y="1600.0" type="line"/>
      <point x="829.3063063063063" y="1069.855855855856" type="line"/>
      <point x="770.8468468468468" y="1026.855855855856" type="line"/>
      <point x="771.2972972972973" y="1026.855855855856" type="line"/>
      <point x="712.8378378378377" y="1069.855855855856" type="line"/>
      <point x="712.8378378378377" y="1600.0" type="line"/>
      <point x="96.9009009009009" y="1600.0" type="line"/>
      <point x="96.9009009009009" y="985.3423423423424" type="line"/>
      <point x="224.83783783783784" y="801.0" type="line"/>
      <point x="224.83783783783784" y="799.0" type="line"/>
      <point x="92.9009009009009" y="611.6576576576576" type="line"/>
      <point x="92.9009009009009" y="0.0" type="line"/>
      <point x="709.8198198198197" y="0.0" type="line"/>
      <point x="709.8198198198197" y="527.1441441441441" type="line"/>
      <point x="771.2972972972973" y="573.1441441441441" type="line"/>
    </contour>
  </outline>
</glyph>
<glyph name="Y" format="2">
  <advance width="1473.7297297297296"/>
  <unicode hex="0059"/>
  <outline>
    <contour>
      <point x="430.0990990990991" y="0.0" type="line" identifier="XKjckKJ7m9"/>
      <point x="1046.036036036036" y="0.0" type="line" identifier="WihjL321cU"/>
      <point x="1046.036036036036" y="533.9009009009009" type="line" identifier="rvzWMWl6O1"/>
      <point x="1407.3243243243244" y="691.7747747747748" type="line" identifier="YbKEFhFR3q"/>
      <point x="1407.3243243243244" y="1600.0" type="line" identifier="wnC8PudY2b"/>
      <point x="790.4054054054053" y="1600.0" type="line" identifier="spI4xe8t4f"/>
      <point x="790.4054054054053" y="1062.7747747747749" type="line" identifier="Jw55i2s2Mm"/>
      <point x="738.5765765765765" y="1034.0090090090089" type="line" identifier="9ncbEH2hEb"/>
      <point x="737.5585585585585" y="1034.0090090090089" type="line" identifier="u7HFbTQwMo"/>
      <point x="682.3423423423422" y="1062.7747747747749" type="line" identifier="oy8ifCCtGL"/>
      <point x="682.3423423423422" y="1600.0" type="line" identifier="ah5yat5gKV"/>
      <point x="66.40540540540539" y="1600.0" type="line" identifier="fJXhpKV79E"/>
      <point x="66.40540540540539" y="691.7747747747748" type="line" identifier="k3vH9oxqcN"/>
      <point x="430.0990990990991" y="533.9009009009009" type="line" identifier="3Kveia3O9h"/>
    </contour>
  </outline>
</glyph>
<glyph name="Z" format="2">
  <advance width="1494.0270270270269"/>
  <unicode hex="005A"/>
  <outline>
    <contour>
      <point x="76.05405405405405" y="0.0" type="line"/>
      <point x="1418.261261261261" y="0.0" type="line" identifier="pzdvPTirLJ"/>
      <point x="1418.261261261261" y="654.9729729729729" type="line" identifier="91SxUS0iwG"/>
      <point x="801.3423423423422" y="654.9729729729729" type="line"/>
      <point x="801.3423423423422" y="453.7117117117117" type="line"/>
      <point x="692.9729729729729" y="453.7117117117117" type="line"/>
      <point x="692.9729729729729" y="584.5135135135135" type="line"/>
      <point x="1430.2432432432431" y="1145.963963963964" type="line" identifier="yyb1NCCI5w"/>
      <point x="1430.2432432432431" y="1600.0" type="line" identifier="5FogYRSgkk"/>
      <point x="79.76576576576576" y="1600.0" type="line" identifier="svlFvrau4c"/>
      <point x="79.76576576576576" y="1015.7657657657658" type="line" identifier="LQ9fBsTy9K"/>
      <point x="632.6306306306305" y="1015.7657657657658" type="line"/>
      <point x="632.6306306306305" y="1146.2882882882882" type="line"/>
      <point x="809.3963963963963" y="1146.2882882882882" type="line"/>
      <point x="809.3963963963963" y="1128.2882882882882" type="line"/>
      <point x="76.05405405405405" y="587.5135135135135" type="line" identifier="teVKnpBcVb"/>
    </contour>
  </outline>
</glyph>
<glyph name="C.wide" format="2">
  <advance width="1471"/>
  <outline>
    <contour>
      <point x="65" y="0" type="line" identifier="7lPhzTnk2Z"/>
      <point x="1407" y="0" type="line" identifier="qJVLZGnkwh"/>
      <point x="1407" y="454" type="line" identifier="Y750RHTvDj"/>
      <point x="682" y="454" type="line" identifier="L2LsGnXiZ2"/>
      <point x="682" y="937" type="line" identifier="sUWsr03vF4"/>
      <point x="723" y="1146" type="line" identifier="dbOUe6OhxL"/>
      <point x="1406" y="1146" type="line" identifier="5BjRbcud80"/>
      <point x="1406" y="1600" type="line" identifier="9eJelv8BOw"/>
      <point x="188" y="1600" type="line" identifier="lfZev3ICaC"/>
      <point x="65" y="973" type="line" identifier="V1EWIdPahq"/>
    </contour>
  </outline>
</glyph>
<glyph name="E.wide" format="2">
  <advance width="1514.117117117117"/>
  <outline>
    <contour>
      <point x="97.22522522522522" y="0.0" type="line" identifier="fZynkQ4XHB"/>
      <point x="1345.6036036036035" y="0.0" type="line" identifier="FAQNpgUPxV"/>
      <point x="1345.6036036036035" y="435.05405405405406" type="line" identifier="5cgTYOhATF"/>
      <point x="714.1441441441441" y="435.05405405405406" type="line" identifier="bWs42DaCgU"/>
      <point x="714.1441441441441" y="592.7837837837837" type="line" identifier="VtD2aADJmn"/>
      <point x="1293.252252252252" y="592.7837837837837" type="line" identifier="PpbsFdHAnS"/>
      <point x="1293.252252252252" y="1008.1981981981982" type="line" identifier="8WuC5p8Ax5"/>
      <point x="714.1441441441441" y="1008.1981981981982" type="line" identifier="m39IWn9ntA"/>
      <point x="714.1441441441441" y="1175.7477477477478" type="line" identifier="gQ21I4SHQg"/>
      <point x="1344.6036036036035" y="1175.7477477477478" type="line" identifier="eqNb2VTwYs"/>
      <point x="1344.6036036036035" y="1600.0" type="line" identifier="qYRmo14Il5"/>
      <point x="97.22522522522522" y="1600.0" type="line" identifier="HmJIcnLWfC"/>
    </contour>
  </outline>
</glyph>
<glyph name="F.wide" format="2">
  <advance width="1516.5675675675675"/>
  <outline>
    <contour>
      <point x="97.22522522522522" y="0.0" type="line" identifier="oAgH2tA6DJ"/>
      <point x="714.1441441441441" y="0.0" type="line" identifier="zCZyMcW5ho"/>
      <point x="714.1441441441441" y="317.8288288288289" type="line" identifier="yHYqkMd7LI"/>
      <point x="1342.6036036036035" y="317.8288288288289" type="line" identifier="NmB7yyQuio"/>
      <point x="1342.6036036036035" y="771.5405405405405" type="line" identifier="wQk2C8zPHh"/>
      <point x="714.1441441441441" y="771.5405405405405" type="line" identifier="4cFHKQfHDt"/>
      <point x="714.1441441441441" y="1146.2882882882882" type="line" identifier="ZvzwyrcwpS"/>
      <point x="1429.0090090090089" y="1146.2882882882882" type="line" identifier="4E754ovOIe"/>
      <point x="1429.0090090090089" y="1600.0" type="line" identifier="NUrIjqOB7J"/>
      <point x="97.22522522522522" y="1600.0" type="line" identifier="TBAYuCfUFX"/>
    </contour>
  </outline>
</glyph>
<glyph name="G.wide" format="2">
  <advance width="1473.3603603603603"/>
  <outline>
    <contour>
      <point x="63.95495495495494" y="0.0" type="line" identifier="7lPhzTnk2Z"/>
      <point x="1404.7387387387384" y="0.0" type="line" identifier="qJVLZGnkwh"/>
      <point x="1404.7387387387384" y="910.009009009009" type="line" identifier="uek1NNj7De"/>
      <point x="717.9639639639639" y="910.009009009009" type="line" identifier="qcvimxjndX"/>
      <point x="717.9639639639639" y="544.6756756756756" type="line" identifier="EARaY3Su65"/>
      <point x="793.5135135135134" y="544.6756756756756" type="line" identifier="4m6dHLVhZq"/>
      <point x="793.5135135135134" y="453.7117117117117" type="line" identifier="Y750RHTvDj"/>
      <point x="680.8738738738739" y="453.7117117117117" type="line" identifier="L2LsGnXiZ2"/>
      <point x="680.8738738738739" y="1007.8018018018018" type="line" identifier="sUWsr03vF4"/>
      <point x="703.4864864864865" y="1146.2882882882882" type="line" identifier="dbOUe6OhxL"/>
      <point x="1405.162162162162" y="1146.2882882882882" type="line" identifier="5BjRbcud80"/>
      <point x="1405.162162162162" y="1600.0" type="line" identifier="9eJelv8BOw"/>
      <point x="144.25225225225228" y="1600.0" type="line" identifier="lfZev3ICaC"/>
      <point x="63.95495495495494" y="1023.0360360360361" type="line" identifier="V1EWIdPahq"/>
    </contour>
  </outline>
</glyph>
<glyph name="K.alt" format="2">
  <advance width="1493.3513513513512"/>
  <outline>
    <contour>
      <point x="685.8918918918919" y="0.0" type="line" identifier="wmNm7XZsaF"/>
      <point x="685.8918918918919" y="573.1441441441441" type="line" identifier="O22liaP9Qk"/>
      <point x="733.4954954954954" y="573.1441441441441" type="line" identifier="ELFBWIb1vd"/>
      <point x="794.9729729729729" y="513.2702702702703" type="line" identifier="DzXo67YEfw"/>
      <point x="794.9729729729729" y="0.0" type="line" identifier="aKpYWD78l2"/>
      <point x="1411.8918918918919" y="0.0" type="line" identifier="ChS7KlqGi6"/>
      <point x="1411.8918918918919" y="597.7837837837837" type="line" identifier="sWLgkU8Vey"/>
      <point x="1279.261261261261" y="799.0" type="line" identifier="Of0iQc0wBG"/>
      <point x="1279.261261261261" y="801.0" type="line" identifier="j4jnmtDJYB"/>
      <point x="1393.945945945946" y="1600.0" type="line" identifier="dMJ1ywOKQQ"/>
      <point x="805.4954954954954" y="1600.0" type="line" identifier="08OWjR2YBJ"/>
      <point x="744.5855855855856" y="1026.855855855856" type="line" identifier="g4YLdZEoM3"/>
      <point x="685.8918918918919" y="1026.855855855856" type="line" identifier="uZuki3Isec"/>
      <point x="685.8918918918919" y="1600.0" type="line" identifier="nRfcNgqJ4H"/>
      <point x="68.97297297297297" y="1600.0" type="line" identifier="3XJlWt89ad"/>
      <point x="68.97297297297297" y="0.0" type="line" identifier="wdbO8kCovY"/>
    </contour>
  </outline>
</glyph>
<glyph name="R.alt" format="2">
  <advance width="1531.2522522522522"/>
  <outline>
    <contour>
      <point x="714.1441441441441" y="928.6576576576576" type="line"/>
      <point x="714.1441441441441" y="1146.2882882882882" type="line"/>
      <point x="819.5135135135135" y="1146.2882882882882" type="line"/>
      <point x="819.5135135135135" y="928.6576576576576" type="line"/>
    </contour>
    <contour>
      <point x="1444.4144144144143" y="0.0" type="line"/>
      <point x="1323.5045045045044" y="594.2072072072071" type="line"/>
      <point x="1436.4324324324323" y="653.1261261261261" type="line"/>
      <point x="1436.4324324324323" y="1600.0" type="line"/>
      <point x="97.22522522522522" y="1600.0" type="line"/>
      <point x="97.22522522522522" y="0.0" type="line"/>
      <point x="714.1441441441441" y="0.0" type="line"/>
      <point x="714.1441441441441" y="474.94594594594594" type="line"/>
      <point x="800.3873873873873" y="473.52252252252254" type="line"/>
      <point x="884.4324324324324" y="0.0" type="line"/>
    </contour>
  </outline>
</glyph>
<glyph name="S.alt" format="2">
  <advance width="1399.6936936936936"/>
  <outline>
    <contour>
      <point x="70.37837837837837" y="0.0" type="line" identifier="09VlJ0BjUX"/>
      <point x="1328.4324324324323" y="0.0" type="line" identifier="EagWihqFM8"/>
      <point x="1328.4324324324323" y="997.3963963963964" type="line" identifier="KfNuQA7eZe"/>
      <point x="609.1441441441441" y="997.3963963963964" type="line" identifier="At364YZFEy"/>
      <point x="609.1441441441441" y="1045.0900900900901" type="line"/>
      <point x="637.108108108108" y="1146.2882882882882" type="line"/>
      <point x="710.8018018018017" y="1146.2882882882882" type="line" identifier="3ZUkG35meB"/>
      <point x="710.8018018018017" y="1124.954954954955" type="line" identifier="DTOJhFIl15"/>
      <point x="1328.4324324324323" y="1124.954954954955" type="line" identifier="9KDcrfQ5Ui"/>
      <point x="1328.4324324324323" y="1600.0" type="line" identifier="SaF9ojRFrW"/>
      <point x="200.9009009009009" y="1600.0" type="line"/>
      <point x="68.37837837837837" y="1087.7927927927929" type="line"/>
      <point x="68.37837837837837" y="602.6036036036036" type="line" identifier="3sQ8t8BZ6b"/>
      <point x="710.8018018018017" y="602.6036036036036" type="line" identifier="yiV6OCBLHg"/>
      <point x="710.8018018018017" y="453.7117117117117" type="line" identifier="9kdl9SYsn8"/>
      <point x="668.081081081081" y="453.7117117117117" type="line" identifier="yZDWuX8LLe"/>
      <point x="668.081081081081" y="546.4324324324324" type="line" identifier="jYb9001DTm"/>
      <point x="70.37837837837837" y="546.4324324324324" type="line" identifier="ho4DrS0rdW"/>
    </contour>
  </outline>
</glyph>
<glyph name="Z.wide" format="2">
  <advance width="1494.0270270270269"/>
  <outline>
    <contour>
      <point x="76.05405405405405" y="0.0" type="line"/>
      <point x="1418.261261261261" y="0.0" type="line" identifier="pzdvPTirLJ"/>
      <point x="1418.261261261261" y="453.7117117117117" type="line"/>
      <point x="692.9729729729729" y="453.7117117117117" type="line"/>
      <point x="692.9729729729729" y="584.5135135135135" type="line"/>
      <point x="1430.2432432432431" y="1215.3333333333335" type="line" identifier="yyb1NCCI5w"/>
      <point x="1430.2432432432431" y="1600.0" type="line" identifier="5FogYRSgkk"/>
      <point x="79.76576576576576" y="1600.0" type="line" identifier="svlFvrau4c"/>
      <point x="79.76576576576576" y="1146.2882882882882" type="line"/>
      <point x="809.3963963963963" y="1146.2882882882882" type="line"/>
      <point x="809.3963963963963" y="1197.6576576576576" type="line"/>
      <point x="76.05405405405405" y="587.5135135135135" type="line" identifier="teVKnpBcVb"/>
    </contour>
  </outline>
</glyph>
